<svg xmlns="http://www.w3.org/2000/svg"><symbol id="mecha-stilts" viewBox="0 0 200 225"><path d="M99.5 2.9l94.9 54.8v109.6l-94.9 54.8-94.9-54.8V57.7L99.5 2.9z"/><path fill="#fff" d="M47.5 153a1.7 1.7 0 0 1-1.8-1.8v-21.8H21.9a1.8 1.8 0 1 1 0-3.6h13.5v-11.7a1.7 1.7 0 0 1 1.8-1.8h7a57.2 57.2 0 0 1 55.1-43.7c.2-.2.4-.2.7 0a57 57 0 0 1 54.8 43.7h7a1.7 1.7 0 0 1 1.8 1.8v11.7h13.5a1.8 1.8 0 1 1 0 3.6h-23.8v21.8a1.7 1.7 0 0 1-1.8 1.8zM39 115.9v9.9h121v-9.9zm56.9-43.5c-23 1.4-42.3 18.1-47.9 39.9h19.3zm-46.6 57v20h48.4v-20zM97.7 76l-25.9 36.3h25.9zm3.6-3.8v40.1H151a53.6 53.6 0 0 0-49.7-40.1zm0 57.2v20h8.1v-20zm11.7 0v20h36.7v-20z"/></symbol><symbol id="space-bubbles" viewBox="0 0 200 225"><path d="M100.5 2.9l94.9 54.8v109.6l-94.9 54.8-94.9-54.8V57.7l94.9-54.8z"/><path fill="#fff" d="M46.9 157l-4.2-6a2 2 0 0 1 .2-2.1l14.9-17.7h-7.3a1.7 1.7 0 0 1-1.8-1.8v-12.9a1.7 1.7 0 0 1 1.8-1.8h10.4a49.4 49.4 0 0 1-2-13.7 42.6 42.6 0 0 1 85.2 0 45.9 45.9 0 0 1-2 13.7h10.4a1.7 1.7 0 0 1 1.8 1.8v12.9a1.7 1.7 0 0 1-1.8 1.8h-9.2l14.8 17.7a1.8 1.8 0 0 1 0 2.1l-4.1 6a2 2 0 0 1-2.4.5L143 153H57.8l-8.6 4.5a1.9 1.9 0 0 1-2.3-.5zm27.3-25.8H62.3l-15.8 18.7 2.5 3.6 30.4-16zm-21.9-12.9v9.3h98.4v-9.3zm12.4-3.6h73.6a45.2 45.2 0 0 0 2.2-13.7 39 39 0 0 0-78 0c0 4.7.4 9.5 2.2 13.7zM82 140.4l-17.1 9h24.4zm-3.1-9.2L94 149.4h13l15.1-18.2zm40.1 9.2l-7.3 9h24.4zm19.7-9.2h-11.9l-5.4 6.3 30.6 16 2.5-3.4z"/></symbol><symbol id="super-domes" viewBox="0 0 200 225"><path d="M100.5 2.9l94.9 54.8v109.6l-94.9 54.8-94.9-54.8V57.7l94.9-54.8z"/><path fill="#fff" d="M45.4 153a1.8 1.8 0 1 1 0-3.6h9v-11.3h-9a1.7 1.7 0 0 1-1.8-1.8v-35.5a1.7 1.7 0 0 1 1.8-1.8h11.9c.9-25.6 20-39.6 43.2-39.6s42.3 14 43.2 39.6h11.9a1.7 1.7 0 0 1 1.8 1.8v35.5a1.7 1.7 0 0 1-1.8 1.8h-9v11.3h9a1.8 1.8 0 1 1 0 3.6zm1.8-50.4v31.9h106.6v-31.9zM58 138.1v11.3h11.5v-11.3zM60.9 99h79.2c-.9-23.2-18.5-36-39.6-36S61.8 75.8 60.9 99zm12.2 39.1v11.3h18v-11.3zm21.6 0v11.3h11.6v-11.3zm48.8-12.3H99.6a1.8 1.8 0 0 1 0-3.6h43.9a1.8 1.8 0 1 1 0 3.6zm-33.6 12.3v11.3h18v-11.3zm21.6 0v11.3H143v-11.3z"/></symbol></svg>